<svg width="100" height="100" viewBox="0 0 100 100" fill="none" xmlns="http://www.w3.org/2000/svg">
<path d="M99.94 47.43C98.64 21.86 78.14 1.36 52.58 0.07C51.72 0.02 50.86 0 50 0C49.14 0 48.28 0.02 47.43 0.07C21.86 1.36 1.36 21.86 0.07 47.43C0.02 48.28 0 49.14 0 50C0 50.86 0.02 51.72 0.07 52.57C1.37 78.14 21.87 98.64 47.43 99.93C48.28 99.98 49.14 100 50 100C50.86 100 51.72 99.98 52.57 99.93C78.14 98.63 98.64 78.13 99.93 52.57C99.98 51.72 100 50.86 100 50C100 49.14 99.98 48.28 99.94 47.43ZM60.43 50.45H52.45V73.68H43.58V50.45H35.53V42.71H43.58V38.16C43.58 31.63 48.11 26.32 54.33 26.32H61.85V34.55H54.33C53.44 34.55 52.45 35.72 52.45 37.28V42.71H61.85L60.43 50.45Z" fill="black"/>
</svg>
