<svg width="50" height="50" viewBox="0 0 50 50" fill="none" xmlns="http://www.w3.org/2000/svg">
<path d="M26.285 0.030003C25.86 0.010001 25.43 0 25 0C24.57 0 24.14 0.010001 23.715 0.030003C10.93 0.680068 0.68 10.9311 0.0349999 23.7124C0.0149998 24.1374 0 24.5675 0 24.9975C0 25.4275 0.00999985 25.8576 0.0349999 26.2826C0.685 39.0689 10.935 49.3199 23.715 49.965C24.14 49.985 24.57 50 25 50C25.43 50 25.86 49.99 26.285 49.965C39.07 49.3149 49.32 39.0639 49.965 26.2826C49.985 25.8576 50 25.4275 50 24.9975C50 24.5675 49.99 24.1374 49.965 23.7124C49.32 10.9311 39.07 0.680068 26.285 0.030003ZM30.215 25.2275H26.225V36.8437H21.79V25.2275H17.765V21.3571H21.79V19.0819C21.79 15.8166 24.055 13.1613 27.165 13.1613H30.925V17.2767H27.165C26.72 17.2767 26.225 17.8618 26.225 18.6419V21.3571H30.925L30.215 25.2275Z" fill="#5F5D5D"/>
</svg>
