<svg width="50" height="50" viewBox="0 0 50 50" fill="none" xmlns="http://www.w3.org/2000/svg">
<g clip-path="url(#clip0_147_441)">
<g clip-path="url(#clip1_147_441)">
<path d="M25 0C11.195 0 0 11.195 0 25C0 38.805 11.195 50 25 50C38.805 50 50 38.805 50 25C50 11.195 38.805 0 25 0ZM36.085 29.605C35.995 31.395 35.585 32.975 34.28 34.28C32.975 35.58 31.39 36 29.605 36.085C27.765 36.19 22.24 36.19 20.395 36.085C18.605 35.995 17.03 35.585 15.72 34.28C14.415 32.975 14 31.39 13.915 29.605C13.81 27.76 13.81 22.24 13.915 20.395C14.005 18.605 14.41 17.025 15.72 15.72C17.03 14.415 18.615 14.005 20.395 13.92C22.235 13.815 27.76 13.815 29.605 13.92C31.395 14.01 32.975 14.42 34.28 15.725C35.58 17.03 36 18.615 36.085 20.4C36.185 22.24 36.185 27.76 36.085 29.605Z" fill="#5F5D5D"/>
<path d="M33.7 18.4199C33.51 17.9399 33.22 17.5049 32.855 17.1399C32.49 16.7749 32.055 16.4899 31.575 16.2999C30.11 15.7199 26.62 15.8499 24.995 15.8499C23.37 15.8499 19.885 15.7149 18.415 16.2999C17.935 16.4899 17.5 16.7749 17.135 17.1399C16.77 17.5049 16.485 17.9399 16.295 18.4199C15.715 19.8849 15.845 23.3749 15.845 24.9999C15.845 26.6249 15.715 30.1099 16.295 31.5799C16.485 32.0599 16.77 32.4949 17.135 32.8599C17.5 33.2249 17.935 33.5099 18.415 33.6999C19.88 34.2799 23.37 34.1499 24.995 34.1499C26.62 34.1499 30.105 34.2849 31.575 33.6999C32.055 33.5099 32.49 33.2249 32.855 32.8599C33.22 32.4949 33.505 32.0599 33.695 31.5799C34.28 30.1149 34.145 26.6249 34.145 24.9999C34.15 23.3749 34.285 19.8899 33.7 18.4199ZM30.285 27.1899C30 27.8849 29.575 28.5149 29.045 29.0449C28.515 29.5749 27.885 29.9999 27.19 30.2849C26.495 30.5699 25.75 30.7199 25 30.7199C23.87 30.7199 22.765 30.3849 21.82 29.7549C20.88 29.1249 20.145 28.2349 19.715 27.1899C19.28 26.1449 19.17 24.9949 19.39 23.8849C19.61 22.7749 20.155 21.7549 20.955 20.9549C21.755 20.1549 22.775 19.6099 23.885 19.3899C24.995 19.1699 26.145 19.2849 27.19 19.7149C28.235 20.1499 29.13 20.8799 29.755 21.8199C30.385 22.7599 30.72 23.8649 30.72 24.9999C30.72 25.7499 30.575 26.4949 30.285 27.1899ZM32.19 19.5499C32.125 19.7099 32.025 19.8599 31.9 19.9849C31.775 20.1099 31.63 20.2099 31.465 20.2749C31.305 20.3399 31.13 20.3749 30.955 20.3749L30.95 20.3699C30.685 20.3699 30.43 20.2899 30.21 20.1449C29.99 19.9999 29.82 19.7899 29.72 19.5449C29.62 19.2999 29.59 19.0349 29.645 18.7749C29.695 18.5149 29.825 18.2799 30.01 18.0899C30.195 17.9049 30.435 17.7749 30.695 17.7249C30.955 17.6749 31.22 17.6999 31.465 17.7999C31.71 17.8999 31.92 18.0699 32.065 18.2899C32.21 18.5099 32.29 18.7699 32.29 19.0299C32.29 19.2149 32.255 19.3899 32.19 19.5499Z" fill="#5F5D5D"/>
<path d="M25 21.2798C24.265 21.2798 23.545 21.4998 22.935 21.9098C22.325 22.3198 21.845 22.8998 21.565 23.5798C21.285 24.2598 21.21 25.0098 21.355 25.7298C21.5 26.4498 21.855 27.1148 22.375 27.6348C22.895 28.1548 23.56 28.5098 24.28 28.6548C25 28.7998 25.75 28.7248 26.43 28.4448C27.11 28.1648 27.69 27.6848 28.1 27.0748C28.51 26.4648 28.725 25.7448 28.725 25.0098C28.725 24.0248 28.33 23.0748 27.635 22.3798C26.935 21.6698 25.985 21.2798 25 21.2798Z" fill="#5F5D5D"/>
</g>
</g>
<defs>
<clipPath id="clip0_147_441">
<rect width="50" height="50" rx="25" fill="white"/>
</clipPath>
<clipPath id="clip1_147_441">
<rect width="50" height="50" fill="white"/>
</clipPath>
</defs>
</svg>
