<svg width="50" height="50" viewBox="0 0 50 50" fill="none" xmlns="http://www.w3.org/2000/svg">
<g clip-path="url(#clip0_147_443)">
<g clip-path="url(#clip1_147_443)">
<path d="M25 0C11.195 0 0 11.195 0 25C0 38.805 11.195 50 25 50C38.805 50 50 38.805 50 25C50 11.195 38.805 0 25 0ZM25 33.44C24.26 33.44 23.54 33.39 22.835 33.29C22.135 33.785 18.07 36.64 17.685 36.695C17.685 36.695 17.53 36.755 17.395 36.68C17.26 36.6 17.285 36.395 17.285 36.395C17.325 36.12 18.34 32.625 18.525 31.98C15.095 30.28 12.815 27.27 12.815 23.84C12.815 18.53 18.27 14.23 25.005 14.23C31.74 14.23 37.195 18.53 37.195 23.84C37.185 29.135 31.73 33.44 25 33.44Z" fill="#5F5D5D"/>
<path d="M21.72 24.705H23.125L22.42 22.71L21.72 24.705Z" fill="white"/>
<path d="M28.425 25.79H26.93V21.66C26.93 21.275 26.61 20.96 26.21 20.96C25.81 20.96 25.49 21.275 25.49 21.66V26.435C25.49 26.52 25.51 26.605 25.545 26.685C25.58 26.765 25.63 26.835 25.695 26.895C25.76 26.955 25.83 27 25.915 27.035C25.995 27.065 26.08 27.08 26.17 27.08H28.425C28.6 27.085 28.77 27.02 28.895 26.895C29.02 26.775 29.095 26.61 29.1 26.435C29.1 26.08 28.8 25.79 28.425 25.79Z" fill="#5F5D5D"/>
<path d="M33.795 26.0299L32.065 23.7349L33.67 22.1349C33.725 22.0799 33.765 22.0099 33.795 21.9349C33.82 21.8599 33.83 21.7799 33.825 21.7049C33.815 21.5349 33.74 21.3799 33.62 21.2599C33.49 21.1249 33.31 21.0499 33.135 21.0499C33.065 21.0499 32.99 21.0649 32.925 21.0899C32.86 21.1149 32.795 21.1549 32.745 21.2099L30.78 23.1699V21.6599C30.77 21.4799 30.695 21.3049 30.565 21.1799C30.435 21.0549 30.26 20.9849 30.08 20.9849C29.9 20.9849 29.725 21.0549 29.595 21.1799C29.465 21.3049 29.385 21.4749 29.38 21.6599V26.4699C29.38 26.6549 29.455 26.8349 29.585 26.9699C29.715 27.0999 29.895 27.1749 30.085 27.1749C30.27 27.1749 30.45 27.0999 30.58 26.9699C30.71 26.8399 30.785 26.6599 30.785 26.4749V24.9399L31.03 24.6949L32.68 26.8799C32.745 26.9699 32.83 27.0399 32.93 27.0849C33.03 27.1349 33.135 27.1599 33.245 27.1599C33.4 27.1599 33.545 27.1099 33.67 27.0199C33.745 26.9649 33.805 26.8949 33.855 26.8149C33.9 26.7349 33.935 26.6499 33.945 26.5549C33.96 26.4649 33.95 26.3699 33.93 26.2799C33.895 26.1899 33.85 26.1049 33.795 26.0299Z" fill="#5F5D5D"/>
<path d="M23.36 21.6501C23.24 21.3151 22.88 20.9651 22.42 20.9551C21.965 20.9651 21.605 21.3101 21.485 21.6501L19.805 26.0751C19.59 26.7401 19.775 26.9851 19.97 27.0751C20.11 27.1401 20.26 27.1701 20.415 27.1701C20.71 27.1701 20.93 27.0501 21 26.8601L21.35 25.9451H23.495L23.845 26.8601C23.915 27.0501 24.135 27.1701 24.43 27.1701C24.585 27.1701 24.735 27.1351 24.875 27.0701C25.07 26.9801 25.255 26.7351 25.04 26.0701L23.36 21.6501ZM21.72 24.7051L22.42 22.7101L23.12 24.7051H21.72Z" fill="#5F5D5D"/>
<path d="M20.515 22.1151C20.635 21.9851 20.7 21.8201 20.7 21.6451C20.7 21.4701 20.635 21.3051 20.515 21.1751C20.395 21.0451 20.235 20.9701 20.06 20.9551H16.46C16.285 20.9701 16.125 21.0451 16.005 21.1751C15.885 21.3051 15.82 21.4701 15.82 21.6451C15.82 21.8201 15.885 21.9851 16.005 22.1151C16.125 22.2451 16.285 22.3201 16.46 22.3351H17.555V26.5151C17.555 26.8851 17.87 27.1851 18.255 27.1851C18.64 27.1851 18.96 26.8851 18.96 26.5151V22.3351H20.055C20.235 22.3201 20.395 22.2451 20.515 22.1151Z" fill="#5F5D5D"/>
</g>
</g>
<defs>
<clipPath id="clip0_147_443">
<rect width="50" height="50" rx="25" fill="white"/>
</clipPath>
<clipPath id="clip1_147_443">
<rect width="50" height="50" fill="white"/>
</clipPath>
</defs>
</svg>
