<svg width="50" height="50" viewBox="0 0 50 50" fill="none" xmlns="http://www.w3.org/2000/svg">
<g clip-path="url(#clip0_147_445)">
<g clip-path="url(#clip1_147_445)">
<path d="M49.965 23.715C49.315 10.93 39.065 0.68 26.285 0.035C25.86 0.01 25.43 0 25 0C24.57 0 24.14 0.01 23.715 0.03C10.93 0.68 0.68 10.93 0.03 23.715C0.01 24.14 0 24.57 0 25C0 25.43 0.01 25.86 0.03 26.285C0.68 39.07 10.93 49.32 23.71 49.965C24.14 49.99 24.57 50 25 50C25.43 50 25.86 49.99 26.285 49.965C39.07 49.315 49.32 39.065 49.965 26.285C49.99 25.86 50 25.43 50 25C50 24.57 49.99 24.14 49.965 23.715ZM25 35.155C12.205 35.155 11.98 34 11.98 25C11.98 15.995 12.205 14.845 25 14.845C37.795 14.845 38.02 16 38.02 25C38.02 34 37.795 35.155 25 35.155Z" fill="#5F5D5D"/>
<path d="M29.175 24.5651L23.325 21.8351C22.815 21.6001 22.395 21.8651 22.395 22.4301V27.5701C22.395 28.1351 22.815 28.4001 23.325 28.1651L29.17 25.4351C29.685 25.1951 29.685 24.8051 29.175 24.5651Z" fill="#5F5D5D"/>
</g>
</g>
<defs>
<clipPath id="clip0_147_445">
<rect width="50" height="50" rx="25" fill="white"/>
</clipPath>
<clipPath id="clip1_147_445">
<rect width="50" height="50" fill="white"/>
</clipPath>
</defs>
</svg>
