<svg width="100" height="100" viewBox="0 0 100 100" fill="none" xmlns="http://www.w3.org/2000/svg">
<g clip-path="url(#clip0_42_449)">
<path d="M50 0C22.39 0 0 22.39 0 50C0 77.61 22.39 100 50 100C77.61 100 100 77.61 100 50C100 22.39 77.61 0 50 0ZM72.17 59.21C71.99 62.79 71.17 65.95 68.56 68.56C65.95 71.16 62.78 72 59.21 72.17C55.53 72.38 44.48 72.38 40.79 72.17C37.21 71.99 34.06 71.17 31.44 68.56C28.83 65.95 28 62.78 27.83 59.21C27.62 55.52 27.62 44.48 27.83 40.79C28.01 37.21 28.82 34.05 31.44 31.44C34.06 28.83 37.23 28.01 40.79 27.84C44.47 27.63 55.52 27.63 59.21 27.84C62.79 28.02 65.95 28.84 68.56 31.45C71.16 34.06 72 37.23 72.17 40.8C72.37 44.48 72.37 55.52 72.17 59.21Z" fill="black"/>
<path d="M67.3999 36.8398C67.0199 35.8798 66.4399 35.0098 65.7099 34.2798C64.9799 33.5498 64.11 32.9798 63.15 32.5998C60.2199 31.4398 53.24 31.6998 49.99 31.6998C46.74 31.6998 39.7699 31.4298 36.8299 32.5998C35.8699 32.9798 34.9999 33.5498 34.2699 34.2798C33.5399 35.0098 32.9699 35.8798 32.5899 36.8398C31.4299 39.7698 31.6899 46.7498 31.6899 49.9998C31.6899 53.2498 31.4299 60.2198 32.5899 63.1598C32.9699 64.1198 33.5399 64.9898 34.2699 65.7198C34.9999 66.4498 35.8699 67.0198 36.8299 67.3998C39.7599 68.5598 46.74 68.2998 49.99 68.2998C53.24 68.2998 60.2099 68.5698 63.15 67.3998C64.11 67.0198 64.9799 66.4498 65.7099 65.7198C66.4399 64.9898 67.0099 64.1198 67.3899 63.1598C68.5599 60.2298 68.2899 53.2498 68.2899 49.9998C68.2999 46.7498 68.5699 39.7798 67.3999 36.8398ZM60.5699 54.3798C59.9999 55.7698 59.1499 57.0298 58.0899 58.0898C57.0299 59.1498 55.7699 59.9998 54.3799 60.5698C52.99 61.1398 51.4999 61.4398 49.9999 61.4398C47.7399 61.4398 45.5299 60.7698 43.6399 59.5098C41.7599 58.2498 40.2899 56.4698 39.4299 54.3798C38.5599 52.2898 38.3399 49.9898 38.7799 47.7698C39.2199 45.5498 40.3099 43.5098 41.9099 41.9098C43.5099 40.3098 45.5499 39.2198 47.7699 38.7798C49.9899 38.3398 52.2899 38.5698 54.3799 39.4298C56.4699 40.2998 58.2599 41.7598 59.5099 43.6398C60.7699 45.5198 61.4399 47.7298 61.4399 49.9998C61.4399 51.4998 61.1499 52.9898 60.5699 54.3798ZM64.3799 39.0998C64.2499 39.4198 64.0499 39.7198 63.7999 39.9698C63.5499 40.2198 63.2599 40.4198 62.9299 40.5498C62.6099 40.6798 62.2599 40.7498 61.9099 40.7498L61.9 40.7398C61.3699 40.7398 60.8599 40.5798 60.4199 40.2898C59.9799 39.9998 59.6399 39.5798 59.4399 39.0898C59.2399 38.5998 59.1799 38.0698 59.2899 37.5498C59.3899 37.0298 59.6499 36.5598 60.0199 36.1798C60.3899 35.8098 60.8699 35.5498 61.3899 35.4498C61.9099 35.3498 62.4399 35.3998 62.9299 35.5998C63.4199 35.7998 63.8399 36.1398 64.1299 36.5798C64.4199 37.0198 64.5799 37.5398 64.5799 38.0598C64.5799 38.4298 64.5099 38.7798 64.3799 39.0998Z" fill="black"/>
<path d="M50.0001 42.5596C48.5301 42.5596 47.0901 42.9996 45.8701 43.8196C44.6501 44.6396 43.6901 45.7996 43.1301 47.1596C42.5701 48.5196 42.4201 50.0196 42.7101 51.4596C43.0001 52.8996 43.7101 54.2296 44.7501 55.2696C45.7901 56.3096 47.1201 57.0196 48.5601 57.3096C50.0001 57.5996 51.5001 57.4496 52.8601 56.8896C54.2201 56.3296 55.3801 55.3696 56.2001 54.1496C57.0201 52.9296 57.4501 51.4896 57.4501 50.0196C57.4501 48.0496 56.6601 46.1496 55.2701 44.7596C53.8701 43.3396 51.9701 42.5596 50.0001 42.5596Z" fill="black"/>
</g>
<defs>
<clipPath id="clip0_42_449">
<rect width="100" height="100" fill="white"/>
</clipPath>
</defs>
</svg>
