<svg width="100" height="100" viewBox="0 0 100 100" fill="none" xmlns="http://www.w3.org/2000/svg">
<g clip-path="url(#clip0_42_448)">
<path d="M50 0C22.39 0 0 22.39 0 50C0 77.61 22.39 100 50 100C77.61 100 100 77.61 100 50C100 22.39 77.61 0 50 0ZM50 66.88C48.52 66.88 47.07 66.78 45.67 66.58C44.26 67.57 36.14 73.28 35.37 73.38C35.37 73.38 35.06 73.5 34.79 73.35C34.52 73.19 34.57 72.78 34.57 72.78C34.65 72.23 36.68 65.24 37.05 63.95C30.19 60.55 25.62 54.53 25.62 47.67C25.62 37.05 36.53 28.45 50 28.45C63.46 28.45 74.38 37.05 74.38 47.67C74.38 58.27 63.46 66.88 50 66.88Z" fill="black"/>
<path d="M56.85 51.5799H53.86V43.3199C53.86 42.5499 53.22 41.9199 52.42 41.9199C51.62 41.9199 50.98 42.5499 50.98 43.3199V52.8699C50.98 53.0399 51.02 53.2099 51.09 53.3699C51.16 53.5299 51.26 53.6699 51.39 53.7899C51.52 53.9099 51.66 53.9999 51.83 54.0699C51.99 54.1299 52.16 54.1599 52.34 54.1599H56.85C57.2 54.1699 57.54 54.0399 57.79 53.7899C58.04 53.5499 58.19 53.2199 58.2 52.8699C58.21 52.1599 57.6 51.5799 56.85 51.5799Z" fill="black"/>
<path d="M67.59 52.0605L64.13 47.4705L67.34 44.2705C67.45 44.1605 67.53 44.0205 67.59 43.8805C67.64 43.7305 67.66 43.5705 67.65 43.4205C67.63 43.0805 67.48 42.7705 67.24 42.5305C66.98 42.2605 66.62 42.1105 66.27 42.1105C66.13 42.1105 65.98 42.1405 65.85 42.1905C65.72 42.2405 65.6 42.3205 65.49 42.4305L61.56 46.3505V43.3305C61.54 42.9705 61.39 42.6205 61.13 42.3705C60.87 42.1205 60.52 41.9805 60.16 41.9805C59.8 41.9805 59.45 42.1205 59.19 42.3705C58.93 42.6205 58.77 42.9605 58.76 43.3305V52.9505C58.76 53.3205 58.91 53.6805 59.17 53.9505C59.43 54.2105 59.79 54.3605 60.17 54.3605C60.54 54.3605 60.9 54.2105 61.16 53.9505C61.42 53.6905 61.57 53.3305 61.57 52.9605V49.8905L62.06 49.4005L65.36 53.7705C65.49 53.9505 65.66 54.0905 65.86 54.1805C66.06 54.2805 66.27 54.3305 66.49 54.3305C66.8 54.3305 67.09 54.2305 67.34 54.0405C67.49 53.9305 67.61 53.7905 67.71 53.6305C67.8 53.4705 67.87 53.3005 67.89 53.1105C67.92 52.9305 67.9 52.7405 67.86 52.5605C67.79 52.3705 67.71 52.2105 67.59 52.0605Z" fill="black"/>
<path d="M46.72 43.3002C46.48 42.6302 45.76 41.9302 44.84 41.9102C43.92 41.9302 43.2 42.6202 42.97 43.3002L39.61 52.1502C39.18 53.4802 39.56 53.9702 39.94 54.1502C40.22 54.2802 40.52 54.3402 40.83 54.3402C41.42 54.3402 41.86 54.1002 42 53.7202L42.7 51.9002H46.99L47.69 53.7202C47.83 54.1002 48.27 54.3402 48.86 54.3402C49.17 54.3402 49.47 54.2702 49.75 54.1402C50.14 53.9602 50.51 53.4702 50.08 52.1402L46.72 43.3002ZM43.44 49.4102L44.85 45.4202L46.25 49.4102H43.44Z" fill="black"/>
<path d="M41.0299 44.2302C41.2699 43.9702 41.3999 43.6402 41.3999 43.2902C41.3999 42.9402 41.2699 42.6102 41.0299 42.3502C40.7899 42.0902 40.4699 41.9402 40.1199 41.9102H32.9199C32.5699 41.9402 32.2499 42.0902 32.0099 42.3502C31.7699 42.6102 31.6399 42.9402 31.6399 43.2902C31.6399 43.6402 31.7699 43.9702 32.0099 44.2302C32.2499 44.4902 32.5699 44.6402 32.9199 44.6702H35.1099V53.0302C35.1099 53.7702 35.7399 54.3702 36.5199 54.3702C37.2999 54.3702 37.9299 53.7702 37.9299 53.0302V44.6702H40.1199C40.4699 44.6402 40.7899 44.4902 41.0299 44.2302Z" fill="black"/>
</g>
<defs>
<clipPath id="clip0_42_448">
<rect width="100" height="100" fill="white"/>
</clipPath>
</defs>
</svg>
