<svg width="100" height="100" viewBox="0 0 100 100" fill="none" xmlns="http://www.w3.org/2000/svg">
<path d="M52.57 0.07C51.72 0.02 50.86 0 50 0C49.14 0 48.28 0.02 47.43 0.07C21.86 1.36 1.36 21.86 0.07 47.43C0.02 48.28 0 49.14 0 50C0 50.86 0.02 51.72 0.07 52.57C1.37 78.14 21.87 98.64 47.43 99.93C48.28 99.98 49.14 100 50 100C50.86 100 51.72 99.98 52.57 99.93C78.14 98.63 98.64 78.13 99.93 52.57C99.98 51.72 100 50.86 100 50C100 49.14 99.98 48.28 99.93 47.43C98.64 21.86 78.14 1.36 52.57 0.07ZM50 70.31C24.41 70.31 23.96 68 23.96 50C23.96 31.99 24.41 29.69 50 29.69C75.59 29.69 76.04 32 76.04 50C76.04 68 75.59 70.31 50 70.31Z" fill="black"/>
<path d="M58.35 49.1303L46.65 43.6703C45.63 43.2003 44.79 43.7303 44.79 44.8603V55.1403C44.79 56.2703 45.63 56.8003 46.65 56.3303L58.34 50.8703C59.37 50.3903 59.37 49.6103 58.35 49.1303Z" fill="black"/>
</svg>
